<?xml version="1.0" standalone="no"?>
<!DOCTYPE svg PUBLIC "-//W3C//DTD SVG 20010904//EN"
 "http://www.w3.org/TR/2001/REC-SVG-20010904/DTD/svg10.dtd">
<svg version="1.0" xmlns="http://www.w3.org/2000/svg"
 width="260.000000pt" height="260.000000pt" viewBox="0 0 260.000000 260.000000"
 preserveAspectRatio="xMidYMid meet">
<metadata>
Created by potrace 1.11, written by Peter Selinger 2001-2013
</metadata>
<g transform="translate(0.000000,260.000000) scale(0.100000,-0.100000)"
fill="#000000" stroke="none">
<path d="M1894 2536 c-34 -8 -111 -37 -170 -66 -194 -91 -352 -139 -450 -134
-74 3 -109 11 -221 54 -57 22 -150 58 -208 80 -128 49 -160 55 -295 54 -100 0
-109 -2 -181 -37 -91 -44 -132 -83 -158 -151 -19 -49 -19 -80 -15 -871 8
-1241 8 -1286 24 -1315 34 -64 131 -106 221 -97 101 11 132 48 551 647 178
255 247 354 364 525 31 44 102 148 159 230 323 467 406 596 403 628 -2 25 -10
35 -36 46 -38 17 -37 35 4 39 71 9 138 -35 149 -98 9 -44 14 -1290 6 -1289 -3
0 -105 120 -226 266 -121 147 -237 286 -257 310 l-37 43 -30 -43 c-115 -167
-181 -272 -178 -281 3 -6 59 -81 126 -166 67 -85 134 -171 149 -190 171 -217
429 -536 464 -570 59 -59 132 -92 189 -85 50 7 104 45 134 96 20 33 20 51 18
1085 l-1 1051 -26 52 c-46 90 -145 167 -238 187 -61 13 -178 13 -234 0z m-979
-435 c176 -87 253 -113 345 -114 41 -1 94 1 117 6 l42 7 -65 -92 c-36 -51 -74
-104 -84 -118 -10 -14 -137 -191 -281 -395 -354 -499 -430 -605 -433 -605 -2
0 -2 285 -1 633 1 603 2 635 21 672 27 55 72 77 150 73 52 -3 82 -14 189 -67z"/>
</g>
</svg>
