<svg id="Layer_1" enable-background="new 0 0 512 512" height="512" viewBox="0 0 512 512" width="512" xmlns="http://www.w3.org/2000/svg"><g><path d="m502 462.005h-492v-285.853l70-39.979h352l70 39.979z" fill="#ff7d95"/><path d="m130 109.187c23 0 32 12.993 56 12.993s54 0 92 0 61-9.995 74-37.98c4.461-9.602 12.026-23.095 17.851-33.158-5.168-.479-10.537-.674-16.059-.674-6.056 0-27.792 16.841-42.792 16.841-3.158 0-16.275-7.996-35-7.996-28 0-41.284 18.99-61 18.99-21 0-39-5.997-62-5.997-21 0-29.679-20.989-47.683-20.989-16.317 0-24.317 68.982-24.317 79.352 0 9.248.21 18.585.615 27.942 10.584-17.695 31.819-49.324 48.385-49.324z" fill="#ffda8f"/><path d="m369.851 51.042c35.3 3.274 61.149 19.899 61.149 79.527 0 119.824-35.051 254.475-78.289 254.475-46.575 0-43.954-69.882-69.659-143.147-8.964-25.549-44.392-25.592-53.416-.065-25.916 73.309-32.284 143.212-70.346 143.212-39.901 0-72.829-114.667-77.674-226.533 10.584-17.695 31.818-49.324 48.385-49.324 23 0 32 12.993 56 12.993s54 0 92 0 61-9.995 74-37.98c4.46-9.603 12.025-23.095 17.85-33.158z" fill="#faf7f5"/><ellipse cx="351" cy="187.646" fill="#9ea6bf" rx="20" ry="34.482"/><g><path d="m506.961 167.474-65.967-37.676c-.054-15.233-1.691-28.066-5.005-39.203-8.943-30.579-34.635-46.653-65.171-49.5-.015-.001-.029-.005-.045-.007-6.382-.632-13.031-1.787-19.408-.52-5.427 1.078-10.35 4.06-15.164 6.652-6.652 3.582-19.282 11.908-26.796 9.021-6.387-2.455-18.275-7.024-33.406-7.024-17.655 0-30.383 6.572-40.61 11.852-7.724 3.988-13.824 7.138-20.39 7.138-9.515 0-18.535-1.353-28.084-2.786-10.525-1.578-21.408-3.211-33.916-3.211-7.582 0-13.241-4.223-19.793-9.113-7.458-5.566-15.913-11.876-27.89-11.876-16.43 0-23.62 23.331-28.048 43.655-4.013 18.418-6.103 38.035-6.258 44.918l-65.971 37.68c-3.116 1.78-5.039 5.091-5.039 8.678v285.853c0 5.52 4.477 9.995 10 9.995h492c5.523 0 10-4.475 10-9.995v-285.853c0-3.587-1.923-6.898-5.039-8.678zm-411.118-73.678c4.633-23.444 9.284-30.659 10.83-32.513 4.511.485 8.594 3.372 14.568 7.831 7.812 5.83 17.534 13.086 31.759 13.086 11.015 0 21.148 1.52 30.948 2.99 9.854 1.479 20.045 3.007 31.052 3.007 11.426 0 20.649-4.762 29.569-9.367 9.584-4.949 18.637-9.623 31.431-9.623 11.418 0 20.689 3.563 26.229 5.691 3.61 1.388 5.996 2.304 8.771 2.304 11.695 0 24.445-6.868 34.69-12.386 2.195-1.182 4.932-2.656 6.935-3.616-.001.001-.001.003-.001.004-4.136 7.518-7.341 13.73-9.694 18.787-5.71 12.103-12.58 19.5-22.99 24.737-10.09 5.017-23.76 7.456-41.78 7.456h-92.16c-10.22-.04-16.59-2.579-24.66-5.787l-.31-.12c-7.86-3.159-17.66-7.086-30.84-7.086h-.19c-8.04.09-14.34 3.848-18.92 7.116-6.247 4.55-12.505 10.888-19.523 19.793-.11.111-.222.233-.336.379.52-6.629 1.979-19.31 4.622-32.683zm250.157 358.214h-180v-57.554c3.819-.675 18.597-5.789 32.13-26.643 10.87-16.751 34.2-103.616 40.93-122.647 2.62-7.41 9.343-12.464 17.28-12.464 8.008 0 14.628 5.079 17.28 12.503 7.31 20.81 23.28 87.195 26.89 98.739 3.75 11.784 8.78 25.227 17.74 35.602 7 8.105 16.943 13.65 27.75 15.056zm-18.25-93.821c-6.02-10.935-27.53-97.56-35.26-119.599-5.342-15.23-19.736-25.876-36.16-25.876-16.298 0-30.749 10.489-36.12 25.787-7.01 19.86-26.26 87.025-30.601 99.051-4.972 13.903-18.932 49.199-39.729 33.76-19.623-14.567-28.671-45.712-35.35-67.974-1.526-5.086-7.158-8.281-12.449-6.697-5.229 1.565-8.274 7.227-6.701 12.454 7.6 25.157 16.27 45.207 25.771 59.591 6.292 9.462 14.246 18.722 24.849 23.429v59.897h-126v-270.059l51.384-29.347c.072 2.11.149 4.223.241 6.338.002.052.01.102.013.153.872 20.039 2.629 40.335 5.242 60.343.64 4.968 4.899 8.705 9.899 8.705 5.804 0 10.705-5.323 9.931-11.284-2.41-18.49-4.08-37.26-4.97-55.781 4.64-7.586 11.77-18.49 19.411-27.357 3.988-4.647 11.735-14.551 18.719-14.551.05 0 .09.01.13.01 9.5.04 15.48 2.419 23.76 5.727l.15.061c7.57 3.038 17.94 7.206 31.87 7.206h92.22c34.2 0 67.782-10.435 83.07-43.767 3.65-7.866 9.71-18.83 14.161-26.656 15.429 2.374 29.198 8.996 36.929 23.068 5.88 10.804 8.85 26.196 8.84 45.746.02 57.63-8.41 120.947-22.531 169.384-6.782 23.333-15.585 55.751-35.985 71.278-12.871 9.795-28.123-.981-34.734-13.04zm164.25 93.821h-126v-59.899c2.939-1.305 5.818-3.028 8.58-5.168 10.2-7.926 19.03-20.449 27.81-39.389 11.43-24.908 21.14-58.72 28.08-97.78 5.608-31.618 9.062-64.806 10.154-97.165l51.376 29.344z"/><path d="m381 187.646c0-25.356-12.897-44.477-30-44.477s-30 19.121-30 44.477 12.897 44.477 30 44.477 30-19.12 30-44.477zm-30 24.488c-3.434 0-10-9.536-10-24.487s6.566-24.487 10-24.487 10 9.536 10 24.487-6.566 24.487-10 24.487z"/><ellipse cx="94" cy="262.108" rx="10" ry="9.995"/></g></g></svg>