<svg id="Layer_1" enable-background="new 0 0 512 512" height="512" viewBox="0 0 512 512" width="512" xmlns="http://www.w3.org/2000/svg"><g><path d="m10 176h492v326h-492z" fill="#ff7d95"/><path d="m178.208 10.15c-43.238 0-97.208 10.358-97.208 130.244s35.051 284.606 78.289 284.606c38.062 0 44.429-79.939 70.345-153.286 9.024-25.54 44.453-25.496 53.416.065 25.706 73.303 23.085 153.221 69.661 153.221 43.238 0 78.289-164.721 78.289-284.606s-53.97-130.244-97.208-130.244c-23.588 0-45.526-2.656-77.792 14.391-32.265-17.047-54.203-14.391-77.792-14.391z" fill="#faf7f5"/><g><path d="m502 166h-61.503c.836-22.31.956-44.767-1.987-66.94-1.58-11.94-3.97-22.92-7.1-32.66-4.45-13.84-10.58-25.64-18.21-35.06-10.06-12.48-23.14-21.25-38.86-26.08-14.63-4.51-29.35-5.26-40.55-5.26-3.79 0-14.79 0-17.74 0-16.24 0-36.08 1.58-60.05 13.31-24.49-11.98-44.62-13.31-61.1-13.31-3.9 0-11.9 0-16.69 0-21.941 0-44.841 3.374-63.21 16.2-25.438 17.761-36.374 48.876-40.86 78.33-3.599 23.629-3.529 47.642-2.634 71.47h-61.506c-5.523 0-10 4.477-10 10v326c0 5.523 4.477 10 10 10h492c5.523 0 10-4.477 10-10v-326c0-5.523-4.477-10-10-10zm-402.795-93.607c5.496-16.95 14.594-31.917 29.582-41.077 14.633-8.943 32.361-11.166 49.202-11.166l16.911-.15c16.765.079 32.537 1.106 55.349 12.825 1.011.701 28.757 8.025 44.182 37.374 2.496 4.749 8.761 6.693 13.505 4.2 4.889-2.569 6.769-8.615 4.2-13.504-9.361-17.812-21.559-28.981-31.987-35.85 13.717-4.458 25.085-4.989 36.95-5.045 0 0 32.23-.617 47.65 3.33 22.141 5.667 37.44 22.165 45.54 43.26 7.12 18.6 10.72 43.43 10.71 73.8.02 58.68-8.65 129.49-22.63 184.82-7.12 28.32-15.42 51.63-23.981 67.421-3.952 7.336-11.702 22.369-21.678 22.369-6.662 0-12.881-2.798-17.429-7.859-3.618-4.026-10.102-4.352-14.121-.771-4.078 3.633-4.402 10.07-.77 14.131 6.536 7.309 15.695 12.597 25.61 14.024v57.475h-180s0-57.637 0-57.643c0 .624 12.146-4.862 13.474-5.8 8.463-5.978 14.315-14.751 18.866-23.917 7.83-15.77 13.66-36.06 19.94-59.03 6.467-23.654 12.608-47.419 20.78-70.56 2.615-7.403 9.341-12.47 17.27-12.47 8 0 14.644 5.077 17.28 12.51 6.53 18.61 11.31 38.189 15.51 56.579 1.203 5.268 6.723 8.723 11.98 7.521 5.37-1.23 8.75-6.6 7.52-11.98-4.04-17.68-8.95-38.25-16.13-58.74-5.347-15.351-19.85-25.89-36.16-25.89-16.293 0-30.748 10.492-36.12 25.8-12.084 34.248-19.423 69.875-30.69 104.36-4.9 15-9.91 26-14.881 32.701-3.727 5.079-8.761 9.513-15.369 9.559-8.248.055-13.458-8.799-17.267-14.902-5.655-9.058-10.119-18.669-13.993-28.609-10.57-27.12-20.07-65.32-26.76-107.57-6.61-41.659-10.25-85.529-10.25-123.53-.008-20.373 1.031-45.873 8.205-67.996zm-79.205 113.607h52.514c1.048 16.603 2.627 33.648 4.716 50.66 4.05 33.05 9.93 65.36 17 93.44 7.66 30.29 16.34 54.53 25.79 72.05 6.164 11.347 14.163 23.442 25.98 29.507v60.343h-126zm472 306h-126v-60.343c3.202-1.644 6.325-3.87 9.3-6.647 9.91-9.34 18.59-24.04 27.32-46.26 11.21-28.83 20.85-67.45 27.88-111.7 3.36-21.14 5.96-42.72 7.75-64.12.476-5.699.888-11.343 1.241-16.93h52.509z"/><circle cx="309.304" cy="373.24" r="10"/></g></g></svg>