<svg id="Layer_1" enable-background="new 0 0 512.002 512.002" height="512" viewBox="0 0 512.002 512.002" width="512" xmlns="http://www.w3.org/2000/svg"><g><g clip-rule="evenodd" fill-rule="evenodd"><path d="m126.001 180c79.658 0 149.384-23.332 170.001-56.885 10.915 33.554 47.828 56.885 89.999 56.885h5c5.616 0 10.814 1.876 15 5.034v-25.034c0-82.5-67.501-150-150-150-82.5 0-150 67.5-150 150v25.034c4.186-3.157 9.384-5.034 15-5.034z" fill="#ffc144"/><path d="m296.002 123.115c-20.617 33.554-90.343 56.885-170.001 56.885h-5c-5.616 0-10.814 1.876-15 5.034-6.063 4.573-10 11.832-10 19.967 0 13.75 11.25 25 25 25h5.384c3.235 42.015 26.672 78.603 60.547 100 9.751 6.159 20.367 11.059 31.616 14.468 11.872 3.597 24.447 5.533 37.453 5.533s25.581-1.935 37.453-5.533c11.248-3.408 21.865-8.309 31.616-14.468 33.875-21.396 57.312-57.984 60.547-100h5.384c13.75 0 25-11.25 25-25 0-8.135-3.937-15.394-10-19.967-4.186-3.157-9.384-5.034-15-5.034h-5c-42.171 0-79.084-23.331-89.999-56.885z" fill="#ffdcd5"/><path d="m186.932 330h-40.932c-11 0-20 9-20 20v57.015c8.526-11.864 18.631-22.526 30-31.673 12.041-9.688 25.5-17.675 40.003-23.59 7.268-2.964 14.798-5.408 22.544-7.284-11.247-3.408-21.863-8.309-31.615-14.468z" fill="#ff7d97"/><path d="m325.07 330c-9.751 6.159-20.367 11.059-31.616 14.468 7.746 1.876 15.276 4.319 22.544 7.284 14.504 5.915 27.963 13.903 40.003 23.59 11.369 9.147 21.474 19.809 30 31.673v-57.015c0-11-9-20-20-20z" fill="#ff7d97"/><path d="m315.998 351.752c-7.268-2.964-14.798-5.408-22.544-7.284-11.871 3.597-24.447 5.533-37.453 5.533s-25.581-1.935-37.453-5.533c-7.745 1.876-15.276 4.319-22.543 7.284l23.947 41.196 7.011-5.965 29.039-24.708 29.039 24.708 7.011 5.965z" fill="#fff"/><path d="m285.04 386.984-29.039-24.708-29.039 24.708 15.074 15.074c7.681 7.681 20.25 7.681 27.931 0z" fill="#60a4ff"/><path d="m229.61 502.002 12.426-99.945-15.074-15.074-7.01 5.965-23.947-41.196v150.25z" fill="#fff"/><path d="m315.998 351.752v150.25h40.001l.002-126.66c-12.04-9.688-25.499-17.676-40.003-23.59z" fill="#ff5d7d"/><path d="m356.001 375.342-.002 126.66h60.002v-2.002c0-34.606-11.136-66.737-30-92.986-8.526-11.863-18.631-22.525-30-31.672z" fill="#fff"/><path d="m196.005 502.002v-150.25c-14.503 5.915-27.962 13.903-40.001 23.593v126.658h40.001z" fill="#ff5d7d"/><path d="m156.003 502.002-.002-126.66c-11.369 9.147-21.474 19.81-30 31.673-18.865 26.249-30 58.379-30 92.985v2.002z" fill="#fff"/><path d="m282.392 502.002-12.425-99.945 15.073-15.074 7.011 5.965 23.947-41.196v150.25z" fill="#fff"/><path d="m282.392 502.002-12.426-99.945c-7.68 7.681-20.25 7.681-27.931 0l-12.426 99.945z" fill="#60a4ff"/><g fill="#ffc144"><path d="m186.932 330c-33.875-21.396-57.312-57.984-60.547-100h-5.384c-5.616 0-10.814-1.876-15-5.033 0 31.577-5.703 59.827-31.703 85.827 0 0 7.367 27.326 51.703 39.206 0-11 9-20 20-20z"/><path d="m385.617 230.001c-3.235 42.015-26.672 78.603-60.547 100h.427 40.505c11 0 20 9.001 20 20 44.336-11.88 51.703-39.206 51.703-39.206-26-26-31.703-54.25-31.703-85.827-4.186 3.157-9.384 5.033-15 5.033z"/></g></g><g><path d="m296.002 219.997c-5.523 0-10 4.481-10 10.004s4.477 10 10 10 10-4.478 10-10v-.008c0-5.522-4.477-9.996-10-9.996z"/><path d="m226 230.001v-.008c0-5.522-4.477-9.996-10-9.996s-10 4.481-10 10.004 4.477 10 10 10 10-4.478 10-10z"/><path d="m274.209 258.802c-4.864 4.864-11.33 7.543-18.208 7.543s-13.344-2.679-18.208-7.543c-3.905-3.903-10.236-3.904-14.142 0-3.905 3.905-3.906 10.236 0 14.143 8.641 8.642 20.13 13.4 32.351 13.4 12.22 0 23.709-4.759 32.35-13.4 3.905-3.906 3.905-10.237 0-14.143-3.906-3.905-10.238-3.905-14.143 0z"/><path d="m207.931 139.982c5.523 0 10-4.478 10-10s-4.477-10-10-10h-.007c-5.523 0-9.996 4.478-9.996 10s4.48 10 10.003 10z"/><path d="m444.775 303.723c-23.881-23.881-28.304-49.694-28.734-74.299 6.157-6.311 9.96-14.93 9.96-24.422 0-9.513-3.82-18.147-10-24.462v-20.54c0-42.571-16.688-82.705-46.992-113.008-30.303-30.304-70.436-46.992-113.008-46.992s-82.706 16.688-113.008 46.991-46.992 70.437-46.992 113.009v20.538c-6.18 6.315-10 14.949-10 24.463 0 9.492 3.802 18.11 9.959 24.422-.43 24.579-4.819 50.386-28.733 74.3-2.53 2.53-3.516 6.22-2.584 9.674.343 1.273 8.515 29.806 51.358 44.04v46.44c-19.414 28.207-30 61.9-30 96.123v2.002c0 5.522 4.477 10 10 10h320c5.523 0 10-4.478 10-10v-2.002c0-34.223-10.587-67.918-30-96.125v-46.439c42.843-14.234 51.016-42.767 51.358-44.04.932-3.454-.054-7.143-2.584-9.673zm-68.774 76.172c-15.585-15.54-34.047-27.974-54.174-36.52 2.006-1.079 3.987-2.202 5.935-3.375h38.24c5.514 0 10 4.486 10 10v29.895zm-83.884 112.107-11.582-86.37 5.053-5.053c2.254 1.909 5.236 2.727 8.15 2.227 2.92-.5 5.469-2.27 6.958-4.831l5.301-9.12v103.148h-13.88zm-86.112 0v-103.148l5.301 9.12c1.489 2.562 4.037 4.331 6.958 4.831.562.097 1.126.144 1.688.144 2.349 0 4.643-.829 6.463-2.37l5.095 5.095-10.733 86.329h-14.772zm87.563-137.19c2.626.682 5.219 1.432 7.78 2.245l-11.929 20.521-21.289-18.114c8.713-.763 17.22-2.336 25.438-4.652zm-30.673 40.174c-3.801 3.804-9.986 3.802-13.788 0l-7.41-7.41 14.304-12.171 14.304 12.171zm-40.311-17.408-11.929-20.522c2.561-.812 5.153-1.563 7.779-2.245 8.218 2.316 16.725 3.889 25.439 4.653zm-32.408-34.203c-20.127 8.545-38.59 20.98-54.175 36.52v-29.895c0-5.514 4.486-10 10-10h38.24c1.948 1.173 3.928 2.296 5.935 3.375zm-24.173 36.589c6.28-4.697 12.963-8.922 20.001-12.623v124.661h-20.001zm84.22 37.298c1.883.366 3.816.556 5.779.555 2.009 0 3.986-.198 5.911-.582l10.026 74.766h-31.009zm75.775-49.919c7.038 3.702 13.721 7.929 20.001 12.626v112.032h-20.001zm-69.997-27.342c-62.308 0-114.863-48.655-119.646-110.768-.401-5.21-4.746-9.232-9.971-9.232h-5.384c-8.271 0-15-6.729-15-15s6.729-15.001 15-15.001h5c73.416 0 137.403-18.87 167.562-48.186 17.152 29.022 52.803 48.186 92.439 48.186h5c8.271 0 15 6.729 15 15.001s-6.729 15-15 15h-5.384c-5.225 0-9.569 4.022-9.971 9.232-4.782 62.113-57.337 110.768-119.645 110.768zm0-320.001c77.196 0 140 62.804 140 140v10.363c-1.634-.235-3.302-.363-5-.363h-5c-37.819 0-70.917-20.552-80.489-49.979-1.207-3.708-4.458-6.376-8.33-6.837-3.871-.459-7.659 1.374-9.7 4.695-18.556 30.201-86.469 52.121-161.481 52.121h-5c-1.698 0-3.366.128-5 .363v-10.363c0-3.364.127-6.698.361-10.003 14.943-.021 31.458-.213 48.341-2 5.492-.581 9.474-5.505 8.892-10.997-.581-5.492-5.509-9.481-10.997-8.892-14.837 1.57-29.684 1.833-43.348 1.879 13.777-62.821 69.855-109.987 136.751-109.987zm-169.836 292.809c21.652-24.106 27.877-49.749 29.397-73.234.611.096 1.226.18 1.848.243 4.479 31.268 19.39 59.156 40.945 80.182h-12.354c-11.984 0-22.345 7.066-27.147 17.249-20.154-7.488-29.054-18.279-32.689-24.44zm59.838 85.131v94.062h-39.792c1.887-35.948 16.436-68.928 39.792-94.062zm219.996 94.062v-94.052c23.354 25.136 37.903 58.115 39.792 94.052zm27.149-154.753c-4.802-10.183-15.163-17.249-27.147-17.249h-12.354c21.555-21.025 36.466-48.914 40.945-80.182.622-.064 1.237-.148 1.849-.244 1.526 23.509 7.772 49.155 29.396 73.233-3.635 6.163-12.535 16.954-32.689 24.442z"/></g></g></svg>