<svg width="72" height="94" viewBox="0 0 72 94" fill="none" xmlns="http://www.w3.org/2000/svg">
<path d="M10.8627 50.3518H0.827877V52.519H10.8627V50.3518Z" fill="#2B3042"/>
<path d="M47.816 50.3518H25.4383V52.393H47.816V50.3518Z" fill="#2B3042"/>
<path d="M70.6704 50.2257H60.4098V52.3678H70.6704V50.2257Z" fill="#2B3042"/>
<path fill-rule="evenodd" clip-rule="evenodd" d="M0.376308 91.3539H71.4983V93.496H0.376308V91.3539Z" fill="#2B3042"/>
<path fill-rule="evenodd" clip-rule="evenodd" d="M3.26133 64.8172H6.4223V61.5662H9.75889V59.7769H6.4223V58.2901H9.9345V56.4504H3.26133V64.8172Z" fill="#2B3042"/>
<path fill-rule="evenodd" clip-rule="evenodd" d="M13.823 59.8778V57.9625H14.4753C14.6509 57.9625 14.8265 57.9625 14.977 57.9877C15.253 58.0381 15.4286 58.0633 15.6293 58.2145C15.9805 58.5169 15.9303 58.7437 15.9052 59.1469C15.8801 59.3989 15.6544 59.6762 15.4537 59.7266C15.2781 59.8022 15.1526 59.8274 14.9519 59.8526C14.6258 59.8778 14.1993 59.8778 13.823 59.8778ZM10.662 64.8172H13.823V61.3142C14.1742 61.3142 14.6509 61.2638 14.977 61.541C15.0272 61.5914 15.0774 61.6166 15.1777 61.7174C15.253 61.793 15.3533 61.8939 15.5038 62.1207C15.6293 62.3223 15.7798 62.6499 15.9303 62.9523L16.8335 64.8172H19.9693L18.6146 62.0199C18.5394 61.8435 18.439 61.6418 18.3387 61.5158C18.0627 61.1126 17.8119 60.9614 17.561 60.8102C17.8119 60.7094 18.0376 60.5834 18.2132 60.4574C18.6146 60.1298 18.7652 59.8526 18.8655 59.5502C18.9659 59.2477 18.9659 58.8445 18.9157 58.4665C18.8153 58.0129 18.6648 57.6097 18.1631 57.2317C18.0627 57.1561 17.9373 57.0804 17.7868 57.0048C17.6362 56.9292 17.4606 56.8536 17.2098 56.778C16.984 56.7024 16.6829 56.6268 16.2815 56.5764C15.8801 56.526 15.3784 56.5008 14.8516 56.5008H10.662V64.8172Z" fill="#2B3042"/>
<path d="M23.7575 56.4504H20.5714V64.8172H23.7575V56.4504Z" fill="#2B3042"/>
<path fill-rule="evenodd" clip-rule="evenodd" d="M24.6606 64.8172H31.4341V63.0027H27.8216V61.4906H31.1833V59.7265H27.8216V58.2901H31.3338V56.4504H24.6606V64.8172Z" fill="#2B3042"/>
<path fill-rule="evenodd" clip-rule="evenodd" d="M32.3122 64.8172H35.4481V60.659L39.4871 64.8172H42.3721V56.4504H39.2362V60.6086L35.1721 56.4504H32.3122V64.8172Z" fill="#2B3042"/>
<path fill-rule="evenodd" clip-rule="evenodd" d="M46.4613 58.5925H47.6153C47.8662 58.5925 48.1171 58.6177 48.3429 58.6933C48.5686 58.7689 48.7693 58.8445 48.9199 58.9705C49.0955 59.0965 49.246 59.2225 49.3714 59.3737C49.6474 59.7265 49.7979 60.1802 49.7979 60.6338C49.7979 60.8858 49.7477 61.1126 49.6976 61.3394C49.6223 61.541 49.522 61.7426 49.3965 61.8938C49.2711 62.045 49.1206 62.1962 48.945 62.297C48.5686 62.5491 48.092 62.6751 47.6153 62.6751H46.4613V58.5925ZM43.2502 64.8172H47.7659C48.3178 64.8172 48.8697 64.7668 49.3463 64.6659C49.823 64.5651 50.1742 64.4391 50.5254 64.2879C50.8767 64.1115 51.2028 63.9099 51.5289 63.6579C51.83 63.4059 52.131 63.1035 52.3568 62.8011C52.8334 62.1458 53.0091 61.415 53.0091 60.6086C53.0091 60.1802 52.9589 59.7769 52.8335 59.4241C52.7331 59.0713 52.5575 58.7437 52.3568 58.4413C52.131 58.1389 51.83 57.8365 51.5289 57.5844C51.2279 57.3324 50.8767 57.1308 50.5254 56.9544C50.1742 56.778 49.7979 56.652 49.3463 56.5764C48.8697 56.4756 48.3178 56.4252 47.7659 56.4252H43.2502V64.8172Z" fill="#2B3042"/>
<path fill-rule="evenodd" clip-rule="evenodd" d="M53.8118 64.8172H60.5854V62.6499H56.9477V56.4504H53.8118V64.8172Z" fill="#2B3042"/>
<path fill-rule="evenodd" clip-rule="evenodd" d="M61.3881 64.8172H64.5742V61.163L68.1115 56.4756L68.0864 56.4504H64.9756L63.2446 59.0461L61.5387 56.4504H57.8759V56.4756L61.3881 61.0874V64.8172Z" fill="#2B3042"/>
<path fill-rule="evenodd" clip-rule="evenodd" d="M11.9164 69.8826H13.0202C13.246 69.8826 13.4969 69.933 13.6976 69.9834C13.8983 70.059 14.099 70.1598 14.2495 70.2606C14.4 70.3866 14.5505 70.5378 14.676 70.689C14.9268 71.067 15.0774 71.5458 15.0774 72.0499C15.0774 72.3019 15.0523 72.5791 14.977 72.8059C14.9017 73.0327 14.8014 73.2343 14.701 73.4107C14.5756 73.5871 14.4502 73.7131 14.2746 73.8391C13.9233 74.1163 13.4718 74.2424 13.0202 74.2424H11.9164V69.8826ZM8.90593 76.5609H13.1707C13.6976 76.5609 14.2244 76.5105 14.6509 76.4097C15.0774 76.3088 15.4537 76.1828 15.7798 75.9812C16.1059 75.8048 16.4321 75.578 16.708 75.326C17.0091 75.0488 17.285 74.7464 17.4857 74.4188C17.9373 73.7131 18.0878 72.9319 18.1129 72.0751C18.1129 71.6214 18.0627 71.193 17.9624 70.7898C17.862 70.4118 17.7115 70.059 17.5108 69.7314C17.3101 69.4037 17.0091 69.0761 16.7331 68.7989C16.4321 68.5217 16.131 68.3201 15.8049 68.1437C15.4787 67.9673 15.1275 67.8161 14.676 67.7153C14.2495 67.6145 13.7226 67.5641 13.1958 67.5641H8.93101V76.5609H8.90593Z" fill="#2B3042"/>
<path fill-rule="evenodd" clip-rule="evenodd" d="M19.2167 76.5609H25.5888V74.6204H22.177V72.9823H25.3631V71.0922H22.177V69.555H25.4885V67.5893H19.2167V76.5609Z" fill="#2B3042"/>
<path fill-rule="evenodd" clip-rule="evenodd" d="M26.8181 76.5609H29.7784V72.0751L33.5916 76.5609H36.3011V67.5893H33.3408V72.0499L29.5275 67.5893H26.8181V76.5609Z" fill="#2B3042"/>
<path fill-rule="evenodd" clip-rule="evenodd" d="M40.0641 76.5609H43.0495V69.9078H45.7338V67.5893H37.3798V69.9078H40.0641V76.5609Z" fill="#2B3042"/>
<path fill-rule="evenodd" clip-rule="evenodd" d="M48.3679 73.2847L49.6474 70.0086L50.8767 73.2847H48.3679ZM44.078 76.5609H47.0885L47.6906 75.0236H51.554L52.131 76.5609H55.1164L51.2028 67.5893H48.0669L44.078 76.5609Z" fill="#2B3042"/>
<path fill-rule="evenodd" clip-rule="evenodd" d="M56.0446 76.5609H62.4167V74.2172H59.0049V67.5893H56.0446V76.5609Z" fill="#2B3042"/>
<path fill-rule="evenodd" clip-rule="evenodd" d="M18.0376 82.2815V79.8118C17.0091 79.3078 16.0056 79.0558 15.0272 79.0558C14.5003 79.0558 13.9735 79.1062 13.547 79.2322C13.0955 79.333 12.7443 79.4842 12.4181 79.6858C12.092 79.8874 11.7659 80.1142 11.4899 80.3914C11.2139 80.6686 10.938 80.9962 10.7373 81.349C10.3108 82.0547 10.1352 82.8863 10.1352 83.718C10.1352 84.1464 10.1854 84.6 10.2857 84.978C10.3861 85.3812 10.5366 85.7088 10.7373 86.0617C10.938 86.4145 11.2139 86.7421 11.4899 87.0193C11.7909 87.2965 12.092 87.5485 12.4432 87.7501C13.1456 88.1534 13.9986 88.355 14.8516 88.355C15.278 88.355 15.7045 88.3298 16.0808 88.2542C16.8084 88.1281 17.4606 87.9013 18.138 87.5485L18.0627 85.104C17.4606 85.5072 16.8334 85.7844 16.2564 85.8852C15.9805 85.9356 15.7045 85.9609 15.4286 85.9609C15.1526 85.9609 14.8516 85.9105 14.5756 85.8348C14.3247 85.7592 14.099 85.6332 13.9233 85.5072C13.7477 85.3812 13.5972 85.23 13.4718 85.0536C13.1958 84.6756 13.0704 84.1968 13.0704 83.718C13.0704 83.4659 13.0955 83.2139 13.1707 82.9871C13.246 82.7603 13.3463 82.5587 13.4467 82.3823C13.5721 82.2059 13.7226 82.0547 13.8983 81.9287C14.5003 81.4751 15.4286 81.3743 16.2314 81.5507C16.8084 81.6263 17.4355 81.8783 18.0376 82.2815Z" fill="#2B3042"/>
<path fill-rule="evenodd" clip-rule="evenodd" d="M19.1164 88.1785H25.5136V85.86H22.1017V79.207H19.1164V88.1785Z" fill="#2B3042"/>
<path d="M29.678 79.207H26.6676V88.1785H29.678V79.207Z" fill="#2B3042"/>
<path fill-rule="evenodd" clip-rule="evenodd" d="M30.9575 88.1785H33.9178V83.718L37.731 88.1785H40.4404V79.207H37.4801V83.6676L33.6669 79.207H30.9575V88.1785Z" fill="#2B3042"/>
<path d="M44.7303 79.207H41.7199V88.1785H44.7303V79.207Z" fill="#2B3042"/>
<path fill-rule="evenodd" clip-rule="evenodd" d="M53.9122 82.2815V79.8118C52.8836 79.3078 51.8801 79.0558 50.9017 79.0558C50.3749 79.0558 49.8481 79.1062 49.4216 79.2322C48.97 79.333 48.6188 79.4842 48.2676 79.6858C47.9415 79.8874 47.6153 80.1142 47.3394 80.3914C47.0634 80.6686 46.7875 80.9962 46.5868 81.349C46.1603 82.0547 45.9847 82.8863 45.9847 83.718C45.9847 84.1464 46.0348 84.6 46.1352 84.978C46.2355 85.3812 46.3861 85.7088 46.5868 86.0617C46.7875 86.4145 47.0634 86.7421 47.3394 87.0193C47.6404 87.2965 47.9415 87.5485 48.2927 87.7501C48.9951 88.1534 49.8481 88.355 50.701 88.355C51.1275 88.355 51.554 88.3298 51.9303 88.2542C52.6578 88.1281 53.3101 87.9013 53.9875 87.5485L53.9122 85.104C53.3101 85.5072 52.6829 85.7844 52.1059 85.8852C51.83 85.9356 51.554 85.9609 51.278 85.9609C51.0021 85.9609 50.676 85.9105 50.4251 85.8348C50.1742 85.7592 49.9484 85.6332 49.7728 85.5072C49.5972 85.3812 49.4467 85.23 49.3213 85.0536C49.0704 84.6756 48.9449 84.1968 48.9199 83.718C48.9199 83.4659 48.97 83.2139 49.0202 82.9871C49.0955 82.7603 49.1958 82.5587 49.2962 82.3823C49.4216 82.2059 49.5721 82.0547 49.7477 81.9287C50.3498 81.4751 51.2781 81.3743 52.0808 81.5507C52.6829 81.6263 53.285 81.8783 53.9122 82.2815Z" fill="#2B3042"/>
<path fill-rule="evenodd" clip-rule="evenodd" d="M55.1415 87.6745C55.7436 87.9769 56.3707 88.1786 56.9477 88.2794C57.2237 88.3298 57.5247 88.355 57.876 88.355C58.2272 88.355 58.6788 88.3046 59.03 88.229C59.3812 88.1534 59.6571 88.0526 59.8829 87.9517C60.1087 87.8509 60.2843 87.7249 60.4348 87.5989C60.9868 87.1201 61.1122 86.7421 61.2376 86.2633C61.2627 86.0617 61.2878 85.8601 61.2878 85.6584C61.2878 85.1796 61.2126 84.7764 60.9868 84.3984C60.9366 84.2976 60.8362 84.1716 60.7359 84.0456C60.6355 83.9196 60.485 83.7432 60.184 83.5416C59.908 83.3399 59.4815 83.0879 59.03 82.8863C58.7791 82.7603 58.5533 82.6091 58.4028 82.5083C58.0767 82.3067 58.0265 82.1807 57.9512 82.0295C57.901 81.8531 57.8509 81.5759 58.177 81.3743C58.4028 81.2483 58.7289 81.2483 59.0801 81.2987C59.2056 81.3239 59.3561 81.3743 59.5066 81.4247C59.8328 81.5507 60.3847 81.9035 60.9115 82.4075L60.9366 82.3823V80.0386C60.6857 79.837 60.3847 79.6354 60.1087 79.5094C59.4815 79.207 58.8293 79.0558 58.1268 79.081C57.7505 79.081 57.3742 79.1314 57.0481 79.2574C56.722 79.3834 56.446 79.5094 56.1951 79.6858C55.9693 79.8622 55.7686 80.0638 55.6181 80.2906C55.1415 80.9962 55.016 81.8027 55.2669 82.6595C55.3673 82.9367 55.4927 83.1635 55.7185 83.4408C55.8439 83.592 55.9944 83.7684 56.2202 83.9448C56.446 84.1464 56.7721 84.348 57.0732 84.5244C57.3742 84.7008 57.7004 84.8772 57.876 85.0032C58.1519 85.2048 58.1519 85.23 58.2272 85.3308C58.3275 85.5324 58.3024 85.6585 58.2021 85.8601C58.1519 85.9609 58.0265 86.0365 57.9261 86.0869C57.7756 86.1373 57.5749 86.1877 57.3742 86.1625C57.2488 86.1625 57.0983 86.1373 56.8976 86.1121C56.4962 86.0365 55.7937 85.7089 55.1164 85.23V87.6745" fill="#2B3042"/>
<path fill-rule="evenodd" clip-rule="evenodd" d="M20.0948 9.77802C20.2704 9.52601 20.3958 9.3748 20.6467 9.19839C20.8976 9.02199 21.2237 8.79518 21.8258 8.66917C22.4279 8.54317 23.2808 8.51797 24.1338 8.74478C24.9868 8.94638 25.8648 9.4 26.5171 9.72762C27.1442 10.0804 27.5456 10.3324 28.223 10.6601C28.9003 10.9877 29.8787 11.4161 30.7568 11.7689C31.6348 12.1217 32.4376 12.4241 33.3408 12.5753C34.269 12.7265 35.3226 12.7013 36.1505 12.6257C36.9784 12.5501 37.6307 12.4241 38.2578 12.1973L19.3672 38.8097L19.4425 14.0622C19.4425 13.7346 19.4425 13.407 19.4425 12.9282C19.4425 12.4493 19.4174 11.8193 19.4425 11.4161C19.4676 11.0381 19.5178 10.8869 19.6432 10.6601C19.7436 10.3828 19.9192 10.03 20.0948 9.77802ZM17.2348 1.05845C16.2314 1.31046 15.2279 1.76408 14.4 2.2429C13.5721 2.72172 12.9449 3.20054 12.4683 3.98177C11.9916 4.78821 11.5401 5.87185 11.5401 6.9555L11.816 50.3518C11.816 51.1582 11.8411 51.9646 12.2174 52.6198C12.5937 53.2751 13.2209 53.7287 13.8481 54.0563C14.4753 54.3587 15.1024 54.5351 15.7798 54.5855C16.4571 54.6359 17.1847 54.5603 17.6613 54.4595C18.138 54.3587 18.3888 54.2327 18.6899 54.0059C18.9909 53.7791 19.3923 53.4263 20.1199 52.5946C20.8725 51.763 21.9512 50.4022 26.6174 43.7743C31.2836 37.1212 39.5122 25.1759 43.8021 18.926C48.092 12.6761 48.4181 12.1217 48.6439 11.7185C48.8697 11.3153 48.97 11.0381 48.9951 10.7609C49.0453 10.4837 49.0202 10.2064 48.97 10.03C48.8948 9.82842 48.7693 9.72762 48.4683 9.62681C48.1672 9.52601 47.7157 9.4252 47.5401 9.274C47.3895 9.09759 47.515 8.87078 47.7658 8.74478C48.0167 8.61877 48.3428 8.56837 48.669 8.59357C48.9951 8.59357 49.2962 8.66917 49.5721 8.74478C49.8481 8.82038 50.0488 8.94638 50.2746 9.07239C50.5003 9.2236 50.701 9.4 50.9017 9.55121C51.1024 9.70242 51.253 9.85362 51.3533 10.0804C51.4537 10.282 51.5289 10.5593 51.5289 10.8365L51.7045 16.9855L51.7296 39.0365L40.3401 25.3019L35.699 32.2826C39.5373 37.222 43.4007 42.111 45.9596 45.3367C48.5185 48.5625 49.7728 50.0997 50.6258 51.1078C51.4787 52.1158 51.9052 52.5694 52.3317 52.9223C52.7331 53.3003 53.1345 53.5523 53.4857 53.7791C53.8369 53.9807 54.138 54.1319 54.439 54.2075C54.7401 54.3083 55.016 54.3587 55.3422 54.3587C55.6683 54.3587 56.0446 54.3083 56.3707 54.2579C56.9728 54.1319 57.4244 53.8295 57.9763 53.3255C58.2523 53.0735 58.5282 52.7459 58.7289 52.4686C58.9296 52.1914 59.03 51.9142 59.1303 51.5362C59.2307 51.1834 59.3561 50.7298 59.3561 50.2509L59.1805 6.55228C59.1805 5.82145 58.8543 5.09062 58.478 4.41019C58.1017 3.70456 57.5498 3.02413 56.8976 2.44451C56.2453 1.86488 55.4676 1.36086 54.4139 0.982844C53.3854 0.630029 52.0557 0.403219 50.7261 0.403219C49.3965 0.42842 48.0418 0.680431 46.7874 1.15925C45.5331 1.63807 44.4042 2.3185 42.6481 3.07453C40.892 3.83057 38.5338 4.6622 36.6773 4.93941C34.8209 5.21662 33.4913 4.98981 32.2369 4.6118C30.9826 4.23378 29.8035 3.72976 28.3735 3.15014C26.9436 2.57051 25.2627 1.89008 24.1087 1.51207C22.9547 1.13405 22.3275 1.08365 21.7505 1.03325C21.1735 0.957643 20.6718 0.88204 19.9442 0.856839C19.2167 0.806436 18.2383 0.831638 17.2348 1.05845Z" fill="#2B3042"/>
</svg>
