<svg id="Capa_1" enable-background="new 0 0 512 512" height="512" viewBox="0 0 512 512" width="512" xmlns="http://www.w3.org/2000/svg"><g id="XMLID_954_"><path id="XMLID_2558_" d="m119.268 152.609v48.692c0 31.036 25.159 56.195 56.195 56.195 31.036 0 56.195-25.159 56.195-56.195v-48.692z" fill="#efb789"/><path id="XMLID_1039_" d="m285.535 324.084c-50.001 0-90.535 40.534-90.535 90.535v33.381h153.5 153.5v-33.382c0-50.001-40.534-90.535-90.535-90.535h-125.93z" fill="#ffcd69"/><g id="XMLID_2458_"><path id="XMLID_2459_" d="m348.5 334.51 36.367 36.367 26.598-46.793-36.305-16.479z" fill="#ffda8f"/></g><g id="XMLID_2521_"><path id="XMLID_2522_" d="m348.5 334.51-36.367 36.367-26.598-46.793 36.305-16.479z" fill="#ffda8f"/></g><path id="XMLID_2457_" d="m372.811 307.605v-29.188h-48.622v29.188l24.311 24.312z" fill="#efb789"/><path id="XMLID_2262_" d="m292.112 187.333v37.223c0 31.142 25.246 56.388 56.388 56.388 31.142 0 56.388-25.246 56.388-56.388v-37.223z" fill="#efb789"/><path id="XMLID_1128_" d="m348.5 116.48c-37.16 0-67.285 30.124-67.285 67.285v.071c.002 4.161 2.833 7.787 6.868 8.804 7.142 1.8 14.618 2.757 22.318 2.757 20.845 0 40.051-7.006 55.403-18.785 10.837 8.573 23.76 14.617 37.882 17.266 6.237 1.17 12.087-3.65 12.098-9.995 0-.039 0-.078 0-.117.001-37.162-30.124-67.286-67.284-67.286z" fill="#ff7d97"/><path id="XMLID_1053_" d="m376.535 119.509c2.106-4.212 3.291-8.964 3.291-13.993 0-17.301-14.025-31.326-31.326-31.326s-31.327 14.025-31.327 31.326c0 5.025 1.183 9.774 3.286 13.984z" fill="#ff7d97"/><path id="XMLID_1095_" d="m240.336 294.5h23.842c42.387 0 76.748 34.361 76.748 76.748v76.752h-330.926v-76.752c0-42.387 34.361-76.748 76.748-76.748h23.842z" fill="#66dff6"/><path id="XMLID_2559_" d="m203.561 282.537v-27.56h-56.195v27.56l28.097 27.963z" fill="#efb789"/><path id="XMLID_967_" d="m256.394 93.436c-18.049 10.153-40.895 6.868-55.164-8.139-12.929-13.599-30.87-21.297-49.633-21.297-27.587 0-49.951 22.364-49.951 49.951 0 27.587 22.364 49.951 49.951 49.951h54.706c27.665 0 50.091-22.427 50.091-50.091z" fill="#6d92ac"/><g id="XMLID_971_"><path id="XMLID_972_" d="m175.463 315.246-36.242 36.242-35.794-52.621 42.323-22.367z" fill="#98eaf9"/></g><g id="XMLID_962_"><path id="XMLID_1076_" d="m175.463 315.246 36.243 36.242 35.794-52.621-42.323-22.367z" fill="#98eaf9"/></g><g id="XMLID_508_"><path id="XMLID_239_" d="m413.69 314.112-30.879-14.017v-18.725c19.212-11.645 32.077-32.754 32.077-56.813v-22.797c1.258-.657 2.459-1.447 3.577-2.373 4.642-3.846 7.31-9.49 7.32-15.505v-.117c0-28.154-15.139-52.831-37.698-66.343 1.154-3.832 1.74-7.814 1.74-11.906 0-22.787-18.539-41.326-41.327-41.326s-41.327 18.539-41.327 41.326c0 4.092.586 8.076 1.741 11.908-22.56 13.518-37.699 38.212-37.699 66.417.003 7.477 4.341 14.104 10.897 17.214v23.501c0 24.059 12.866 45.168 32.077 56.813v19.036c-14.143-10.014-31.401-15.906-50.011-15.906h-22.463l-28.154-14.879v-14.238c16.979-11.996 28.098-31.759 28.098-54.083v-38.943c14.979-10.939 24.735-28.621 24.735-48.546v-20.374c0-3.553-1.885-6.839-4.952-8.632-3.067-1.795-6.854-1.825-9.951-.084-14.199 7.987-31.886 5.391-43.014-6.314-14.747-15.51-35.479-24.406-56.88-24.406-33.057 0-59.951 26.894-59.951 59.951 0 16.55 6.742 31.555 17.623 42.413v44.936c0 22.323 11.119 42.087 28.098 54.083v14.238l-28.156 14.879h-22.463c-47.833 0-86.748 38.915-86.748 86.748v76.752c0 5.522 4.477 10 10 10h120.463c5.523 0 10-4.478 10-10s-4.477-10-10-10h-110.463v-66.752c0-36.805 29.943-66.748 66.748-66.748h8.416l35.788 52.612c1.676 2.464 4.363 4.052 7.33 4.332.314.029.628.044.939.044 2.639 0 5.187-1.045 7.07-2.929l29.172-29.171 29.172 29.171c1.884 1.884 4.431 2.929 7.07 2.929.312 0 .626-.015.939-.044 2.966-.28 5.654-1.868 7.33-4.332l35.788-52.612h8.416c36.805 0 66.748 29.943 66.748 66.748v66.752h-110.463c-5.523 0-10 4.478-10 10s4.477 10 10 10h281.537c5.523 0 10-4.478 10-10v-33.382c0-54.691-43.899-99.318-98.31-100.506zm-262.093-240.112c15.948 0 31.397 6.629 42.386 18.188 13.698 14.406 33.704 20.025 52.411 15.735v5.889c0 22.106-17.985 40.091-40.091 40.091h-54.706c-22.029 0-39.951-17.922-39.951-39.951s17.921-39.952 39.951-39.952zm-22.329 95.573c6.906 2.783 14.438 4.329 22.329 4.329h54.706c5.307 0 10.452-.699 15.356-1.996v29.395c0 25.473-20.723 46.195-46.195 46.195s-46.195-20.723-46.195-46.195v-31.728zm46.195 97.923c6.275 0 12.341-.896 18.098-2.536v10.254l-18.098 23.599-18.098-23.599v-10.254c5.757 1.64 11.823 2.536 18.098 2.536zm-34.77 68.377-22.711-33.388 24.972-13.197 19.238 25.086zm69.54 0-21.499-21.499 19.238-25.086 24.972 13.197zm167.132-16.286 19.995 9.076-14.701 25.863-20.048-20.048zm-50.192-214.071c0-11.76 9.567-21.326 21.327-21.326s21.327 9.566 21.327 21.326c0 1.319-.121 2.614-.353 3.881-6.675-1.885-13.704-2.916-20.974-2.916s-14.299 1.031-20.974 2.917c-.232-1.269-.353-2.563-.353-3.882zm21.327 20.964c31.587 0 57.285 25.697 57.285 57.284l-.002.128c-.003.013-.118.184-.253.156-12.18-2.284-23.771-7.567-33.521-15.279-3.592-2.842-8.656-2.88-12.29-.091-14.256 10.937-31.309 16.718-49.316 16.718-6.484 0-12.934-.768-19.183-2.282.35-31.287 25.911-56.634 57.28-56.634zm-46.388 78.568c2.753.225 5.519.348 8.289.348 19.911 0 38.89-5.672 55.331-16.473 8.913 5.974 18.802 10.451 29.155 13.205v22.428c0 25.578-20.81 46.388-46.388 46.388s-46.388-20.81-46.388-46.388v-19.508zm46.388 85.896c4.914 0 9.698-.553 14.31-1.57v16.487l-14.31 14.443-14.311-14.443v-16.487c4.613 1.018 9.397 1.57 14.311 1.57zm143.5 147.056h-141.073v-66.752c0-8.094-1.118-15.932-3.201-23.37l30.07 30.07c1.888 1.888 4.436 2.929 7.07 2.929.445 0 .892-.029 1.339-.09 3.093-.418 5.813-2.256 7.355-4.969l23.596-41.511c41.759 2.933 74.844 37.82 74.844 80.311z"/><path id="XMLID_780_" d="m175.46 438c-2.63 0-5.21 1.069-7.07 2.93-1.86 1.86-2.93 4.44-2.93 7.07s1.07 5.21 2.93 7.069c1.87 1.86 4.44 2.931 7.07 2.931s5.21-1.07 7.08-2.931c1.86-1.859 2.92-4.439 2.92-7.069s-1.06-5.21-2.92-7.07c-1.87-1.861-4.44-2.93-7.08-2.93z"/></g></g></svg>