<svg id="Layer_1" enable-background="new 0 0 512 512" height="512" viewBox="0 0 512 512" width="512" xmlns="http://www.w3.org/2000/svg"><g><path d="m10 190h492v312h-492z" fill="#ff7d95"/><path d="m178.208 10.15c-43.238 0-97.208 10.358-97.208 130.244s35.051 284.606 78.29 284.606c38.062 0 44.429-79.939 70.345-153.286 9.024-25.54 44.453-25.496 53.416.065 25.705 73.303 23.084 153.221 69.66 153.221 43.238 0 78.289-164.721 78.289-284.606s-53.97-130.244-97.208-130.244c-23.588 0-45.526-2.656-77.792 14.391-32.265-17.047-54.203-14.391-77.792-14.391z" fill="#faf7f5"/><path d="m181 70h150v120h-150z" fill="#9ea6bf"/><circle cx="256" cy="130" fill="#e0f9fd" r="20"/><g><circle cx="309.304" cy="373.24" r="10"/><path d="m502 160c5.522 0 10-4.477 10-10s-4.478-10-10-10h-61.003c-.007-6.917-.197-13.59-.559-20h61.562c5.522 0 10-4.477 10-10s-4.478-10-10-10h-63.375c-.04-.311-.074-.631-.115-.94-1.58-11.94-3.97-22.93-7.1-32.66-4.45-13.83-10.57-25.63-18.21-35.06-10.07-12.48-23.141-21.25-38.86-26.08-14.62-4.51-29.35-5.1-40.55-5.11l-.79-.15c-2.659 0-16.641 0-17 0-16.24 0-36.03 1.58-60 13.31-23.97-11.73-43.81-13.31-60.05-13.31-.95 0-17.95 0-17.95 0-11.21 0-22.52.6-35.69 3.95-10.2 2.6-19.39 6.72-27.31 12.25-14 9.71-24.76 24.27-31.98 43.26-3.91 10.27-6.9 22.07-8.88 35.07-.274 1.791-.528 3.617-.766 5.47h-63.374c-5.523 0-10 4.477-10 10s4.477 10 10 10h61.568c-.363 6.413-.558 13.081-.564 20h-61.004c-5.523 0-10 4.477-10 10s4.477 10 10 10h61.304c.193 6.56.476 13.236.852 20h-62.156c-5.523 0-10 4.477-10 10v312c0 5.523 4.477 10 10 10h492c5.522 0 10-4.477 10-10v-312c0-5.523-4.478-10-10-10h-62.153c.378-6.772.659-13.44.85-20zm-81.003-20h-79.997v-20h79.406c.385 6.372.586 13.035.591 20zm-321.367-67.47c7.126-22.169 21.099-41.004 43.95-48.16 9.26-2.88 20.19-4.22 34.41-4.22l16.91-.15c17.03.07 33.02 1.13 56.43 13.38 2.87 1.52 6.47 1.52 9.34 0 23.399-12.25 39.399-13.31 56.43-13.38l16.84.15c12.54 0 22.33 1.01 30.81 3.18 22.318 5.711 37.394 22.048 45.54 43.26 3.642 9.529 6.359 20.704 8.149 33.41h-77.439v-30c0-5.523-4.478-10-10-10h-150c-5.523 0-10 4.477-10 10v30h-77.438c1.431-10.163 3.452-19.348 6.068-27.47zm221.37 7.47v100h-130v-100zm-229.409 40h79.409v20h-79.998c.005-6.96.203-13.628.589-20zm228.799 300.5c8.044 8.993 19.946 14.5 32.26 14.5h.061c27.082 0 41.845-35.457 49.92-56.25 11.2-28.84 20.84-67.46 27.87-111.7 3.359-21.14 5.96-42.72 7.75-64.12.082-.981.152-1.952.231-2.93h53.518v292h-472v-292h53.511c.968 12.119 2.206 24.399 3.708 36.66 4.06 33.05 9.94 65.36 17.01 93.441 7.315 28.935 16.085 60.349 33.859 84.848 7.317 10.084 17.977 20.051 31.202 20.051h.13c18.748 0 31.179-14.977 38.91-30.36 7.85-15.78 13.67-36.07 19.95-59.03.77-2.84 13.519-50.008 20.78-70.568 2.528-7.16 9.374-12.461 17.279-12.462 7.753-.001 14.631 5.061 17.271 12.51 6.53 18.589 11.31 38.178 15.51 56.577 1.155 5.061 6.634 8.746 11.98 7.523 5.37-1.23 8.75-6.6 7.521-11.98-4.04-17.67-8.95-38.24-16.13-58.74-5.304-15.144-19.766-25.89-36.16-25.89-16.185 0-30.793 10.619-36.12 25.801-12.094 34.247-19.402 69.881-30.69 104.36-4.378 13.373-12.124 42.139-30.25 42.26-15.726.105-26.98-32.525-31.26-43.51-10.56-27.1-20.07-65.31-26.76-107.57-5.5-34.673-8.935-70.852-9.936-103.92h79.685v30c0 5.523 4.477 10 10 10h150c5.522 0 10-4.477 10-10v-30h79.694c-1.636 54.343-9.87 115.917-22.324 165.21-7.12 28.31-15.41 51.62-23.982 67.423-3.917 7.268-11.732 22.366-21.677 22.367-6.395.001-12.996-2.933-17.43-7.85-3.667-4.065-10.035-4.421-14.12-.781-4.092 3.645-4.413 10.058-.771 14.13z"/><path d="m256 160c16.542 0 30-13.458 30-30s-13.458-30-30-30-30 13.458-30 30 13.458 30 30 30zm0-40c5.514 0 10 4.486 10 10s-4.486 10-10 10-10-4.486-10-10 4.486-10 10-10z"/></g></g></svg>